<mxfile host="app.diagrams.net" agent="Mozilla/5.0 (Windows NT 10.0; Win64; x64) AppleWebKit/537.36 (KHTML, like Gecko) Chrome/132.0.0.0 Safari/537.36" version="26.0.14">
  <diagram id="C5RBs43oDa-KdzZeNtuy" name="Page-1">
    <mxGraphModel dx="1485" dy="821" grid="1" gridSize="10" guides="1" tooltips="1" connect="1" arrows="1" fold="1" page="1" pageScale="1" pageWidth="827" pageHeight="1169" math="0" shadow="0">
      <root>
        <mxCell id="WIyWlLk6GJQsqaUBKTNV-0" />
        <mxCell id="WIyWlLk6GJQsqaUBKTNV-1" parent="WIyWlLk6GJQsqaUBKTNV-0" />
        <mxCell id="IBT_xv0VZymIU8zP_UOQ-2" style="edgeStyle=none;curved=1;rounded=0;orthogonalLoop=1;jettySize=auto;html=1;exitX=0.5;exitY=1;exitDx=0;exitDy=0;entryX=0.5;entryY=0;entryDx=0;entryDy=0;fontSize=12;startSize=8;endSize=8;" edge="1" parent="WIyWlLk6GJQsqaUBKTNV-1" source="IBT_xv0VZymIU8zP_UOQ-0" target="IBT_xv0VZymIU8zP_UOQ-1">
          <mxGeometry relative="1" as="geometry" />
        </mxCell>
        <mxCell id="IBT_xv0VZymIU8zP_UOQ-0" value="&lt;font style=&quot;font-size: 19px;&quot;&gt;начало&lt;/font&gt;" style="ellipse;whiteSpace=wrap;html=1;" vertex="1" parent="WIyWlLk6GJQsqaUBKTNV-1">
          <mxGeometry x="150" y="20" width="120" height="80" as="geometry" />
        </mxCell>
        <mxCell id="IBT_xv0VZymIU8zP_UOQ-10" style="edgeStyle=none;curved=1;rounded=0;orthogonalLoop=1;jettySize=auto;html=1;exitX=0.5;exitY=1;exitDx=0;exitDy=0;entryX=0.5;entryY=0;entryDx=0;entryDy=0;fontSize=12;startSize=8;endSize=8;" edge="1" parent="WIyWlLk6GJQsqaUBKTNV-1" source="IBT_xv0VZymIU8zP_UOQ-1" target="IBT_xv0VZymIU8zP_UOQ-9">
          <mxGeometry relative="1" as="geometry" />
        </mxCell>
        <mxCell id="IBT_xv0VZymIU8zP_UOQ-1" value="&lt;font style=&quot;font-size: 17px;&quot;&gt;int main()&lt;/font&gt;" style="shape=process;whiteSpace=wrap;html=1;backgroundOutline=1;" vertex="1" parent="WIyWlLk6GJQsqaUBKTNV-1">
          <mxGeometry x="150" y="120" width="120" height="60" as="geometry" />
        </mxCell>
        <mxCell id="IBT_xv0VZymIU8zP_UOQ-3" value="&lt;div&gt;&lt;font style=&quot;font-size: 17px;&quot;&gt;#include &amp;lt;iostream&amp;gt;&lt;/font&gt;&lt;/div&gt;&lt;div&gt;&lt;font style=&quot;font-size: 17px;&quot;&gt;#include &amp;lt;string&amp;gt;&lt;/font&gt;&lt;/div&gt;&lt;div&gt;&lt;font style=&quot;font-size: 17px;&quot;&gt;#include &amp;lt;clocale&amp;gt;&lt;/font&gt;&lt;/div&gt;&lt;div&gt;&lt;font style=&quot;font-size: 17px;&quot;&gt;using namespace std;&lt;/font&gt;&lt;/div&gt;" style="text;html=1;align=left;verticalAlign=middle;resizable=0;points=[];autosize=1;strokeColor=none;fillColor=none;fontSize=16;" vertex="1" parent="WIyWlLk6GJQsqaUBKTNV-1">
          <mxGeometry x="290" y="30" width="190" height="100" as="geometry" />
        </mxCell>
        <mxCell id="IBT_xv0VZymIU8zP_UOQ-4" value="" style="endArrow=none;html=1;rounded=0;fontSize=12;startSize=8;endSize=8;curved=1;" edge="1" parent="WIyWlLk6GJQsqaUBKTNV-1">
          <mxGeometry width="50" height="50" relative="1" as="geometry">
            <mxPoint x="290" y="130" as="sourcePoint" />
            <mxPoint x="290" y="30" as="targetPoint" />
          </mxGeometry>
        </mxCell>
        <mxCell id="IBT_xv0VZymIU8zP_UOQ-5" value="" style="endArrow=none;html=1;rounded=0;fontSize=12;startSize=8;endSize=8;curved=1;" edge="1" parent="WIyWlLk6GJQsqaUBKTNV-1">
          <mxGeometry width="50" height="50" relative="1" as="geometry">
            <mxPoint x="290" y="130" as="sourcePoint" />
            <mxPoint x="330" y="130" as="targetPoint" />
          </mxGeometry>
        </mxCell>
        <mxCell id="IBT_xv0VZymIU8zP_UOQ-7" value="" style="endArrow=none;html=1;rounded=0;fontSize=12;startSize=8;endSize=8;curved=1;" edge="1" parent="WIyWlLk6GJQsqaUBKTNV-1">
          <mxGeometry width="50" height="50" relative="1" as="geometry">
            <mxPoint x="290" y="30" as="sourcePoint" />
            <mxPoint x="330" y="30" as="targetPoint" />
          </mxGeometry>
        </mxCell>
        <mxCell id="IBT_xv0VZymIU8zP_UOQ-8" value="" style="endArrow=none;dashed=1;html=1;dashPattern=1 3;strokeWidth=2;rounded=0;fontSize=12;startSize=8;endSize=8;curved=1;" edge="1" parent="WIyWlLk6GJQsqaUBKTNV-1">
          <mxGeometry width="50" height="50" relative="1" as="geometry">
            <mxPoint x="210" y="110" as="sourcePoint" />
            <mxPoint x="290" y="110" as="targetPoint" />
          </mxGeometry>
        </mxCell>
        <mxCell id="IBT_xv0VZymIU8zP_UOQ-12" style="edgeStyle=none;curved=1;rounded=0;orthogonalLoop=1;jettySize=auto;html=1;exitX=0.5;exitY=1;exitDx=0;exitDy=0;fontSize=12;startSize=8;endSize=8;" edge="1" parent="WIyWlLk6GJQsqaUBKTNV-1" source="IBT_xv0VZymIU8zP_UOQ-9" target="IBT_xv0VZymIU8zP_UOQ-11">
          <mxGeometry relative="1" as="geometry" />
        </mxCell>
        <mxCell id="IBT_xv0VZymIU8zP_UOQ-9" value="&lt;font style=&quot;font-size: 14px;&quot;&gt;setlocale(LC_ALL, &quot;rus&quot;);&lt;/font&gt;" style="whiteSpace=wrap;html=1;" vertex="1" parent="WIyWlLk6GJQsqaUBKTNV-1">
          <mxGeometry x="128.75" y="190" width="162.5" height="40" as="geometry" />
        </mxCell>
        <mxCell id="IBT_xv0VZymIU8zP_UOQ-15" style="edgeStyle=none;curved=1;rounded=0;orthogonalLoop=1;jettySize=auto;html=1;exitX=0.5;exitY=1;exitDx=0;exitDy=0;entryX=0.5;entryY=0;entryDx=0;entryDy=0;fontSize=12;startSize=8;endSize=8;" edge="1" parent="WIyWlLk6GJQsqaUBKTNV-1" source="IBT_xv0VZymIU8zP_UOQ-11" target="IBT_xv0VZymIU8zP_UOQ-14">
          <mxGeometry relative="1" as="geometry" />
        </mxCell>
        <mxCell id="IBT_xv0VZymIU8zP_UOQ-11" value="&lt;font style=&quot;font-size: 14px;&quot;&gt;int n = 5;&lt;/font&gt;" style="whiteSpace=wrap;html=1;" vertex="1" parent="WIyWlLk6GJQsqaUBKTNV-1">
          <mxGeometry x="167.5" y="240" width="85" height="30" as="geometry" />
        </mxCell>
        <mxCell id="IBT_xv0VZymIU8zP_UOQ-13" value="&lt;font style=&quot;font-size: 18px;&quot;&gt;{&lt;/font&gt;" style="text;html=1;align=center;verticalAlign=middle;resizable=0;points=[];autosize=1;strokeColor=none;fillColor=none;" vertex="1" parent="WIyWlLk6GJQsqaUBKTNV-1">
          <mxGeometry x="98.75" y="190" width="30" height="40" as="geometry" />
        </mxCell>
        <mxCell id="IBT_xv0VZymIU8zP_UOQ-17" style="edgeStyle=none;curved=1;rounded=0;orthogonalLoop=1;jettySize=auto;html=1;exitX=0.5;exitY=1;exitDx=0;exitDy=0;entryX=0.5;entryY=0;entryDx=0;entryDy=0;fontSize=12;startSize=8;endSize=8;" edge="1" parent="WIyWlLk6GJQsqaUBKTNV-1" source="IBT_xv0VZymIU8zP_UOQ-14" target="IBT_xv0VZymIU8zP_UOQ-16">
          <mxGeometry relative="1" as="geometry" />
        </mxCell>
        <mxCell id="IBT_xv0VZymIU8zP_UOQ-14" value="&lt;font style=&quot;font-size: 14px;&quot;&gt;cout &amp;lt;&amp;lt; &quot;Введите &quot; &amp;lt;&amp;lt;n&amp;lt;&amp;lt;&quot; строк:&quot;;&lt;/font&gt;" style="shape=parallelogram;perimeter=parallelogramPerimeter;whiteSpace=wrap;html=1;fixedSize=1;" vertex="1" parent="WIyWlLk6GJQsqaUBKTNV-1">
          <mxGeometry x="128.75" y="280" width="162.5" height="30" as="geometry" />
        </mxCell>
        <mxCell id="IBT_xv0VZymIU8zP_UOQ-16" value="&lt;font style=&quot;font-size: 14px;&quot;&gt;string* mas = new string[n];&lt;/font&gt;" style="whiteSpace=wrap;html=1;" vertex="1" parent="WIyWlLk6GJQsqaUBKTNV-1">
          <mxGeometry x="148.75" y="320" width="122.5" height="40" as="geometry" />
        </mxCell>
        <mxCell id="IBT_xv0VZymIU8zP_UOQ-20" style="edgeStyle=none;curved=1;rounded=0;orthogonalLoop=1;jettySize=auto;html=1;exitX=0.5;exitY=1;exitDx=0;exitDy=0;entryX=0.5;entryY=0;entryDx=0;entryDy=0;fontSize=12;startSize=8;endSize=8;" edge="1" parent="WIyWlLk6GJQsqaUBKTNV-1" source="IBT_xv0VZymIU8zP_UOQ-18" target="IBT_xv0VZymIU8zP_UOQ-19">
          <mxGeometry relative="1" as="geometry" />
        </mxCell>
        <mxCell id="IBT_xv0VZymIU8zP_UOQ-26" style="edgeStyle=none;curved=0;rounded=0;orthogonalLoop=1;jettySize=auto;html=1;exitX=1;exitY=0.5;exitDx=0;exitDy=0;fontSize=12;startSize=8;endSize=8;" edge="1" parent="WIyWlLk6GJQsqaUBKTNV-1" source="IBT_xv0VZymIU8zP_UOQ-18">
          <mxGeometry relative="1" as="geometry">
            <mxPoint x="210" y="490" as="targetPoint" />
            <Array as="points">
              <mxPoint x="298" y="470" />
              <mxPoint x="210" y="470" />
            </Array>
          </mxGeometry>
        </mxCell>
        <mxCell id="IBT_xv0VZymIU8zP_UOQ-18" value="&lt;font style=&quot;font-size: 14px;&quot;&gt;for (int i = 0; i &amp;lt; n; ++i)&lt;/font&gt;" style="shape=hexagon;perimeter=hexagonPerimeter2;whiteSpace=wrap;html=1;fixedSize=1;" vertex="1" parent="WIyWlLk6GJQsqaUBKTNV-1">
          <mxGeometry x="122.5" y="370" width="175" height="40" as="geometry" />
        </mxCell>
        <mxCell id="IBT_xv0VZymIU8zP_UOQ-24" style="edgeStyle=none;curved=0;rounded=0;orthogonalLoop=1;jettySize=auto;html=1;exitX=0.5;exitY=1;exitDx=0;exitDy=0;entryX=0;entryY=0.5;entryDx=0;entryDy=0;fontSize=12;startSize=8;endSize=8;" edge="1" parent="WIyWlLk6GJQsqaUBKTNV-1" source="IBT_xv0VZymIU8zP_UOQ-19" target="IBT_xv0VZymIU8zP_UOQ-18">
          <mxGeometry relative="1" as="geometry">
            <Array as="points">
              <mxPoint x="210" y="460" />
              <mxPoint x="110" y="460" />
              <mxPoint x="110" y="390" />
            </Array>
          </mxGeometry>
        </mxCell>
        <mxCell id="IBT_xv0VZymIU8zP_UOQ-19" value="&lt;font style=&quot;font-size: 14px;&quot;&gt;cin &amp;gt;&amp;gt; mas[i];&lt;/font&gt;" style="shape=parallelogram;perimeter=parallelogramPerimeter;whiteSpace=wrap;html=1;fixedSize=1;" vertex="1" parent="WIyWlLk6GJQsqaUBKTNV-1">
          <mxGeometry x="152.5" y="420" width="115" height="30" as="geometry" />
        </mxCell>
        <mxCell id="IBT_xv0VZymIU8zP_UOQ-29" style="edgeStyle=none;curved=1;rounded=0;orthogonalLoop=1;jettySize=auto;html=1;exitX=0.5;exitY=1;exitDx=0;exitDy=0;entryX=0.5;entryY=0;entryDx=0;entryDy=0;fontSize=12;startSize=8;endSize=8;" edge="1" parent="WIyWlLk6GJQsqaUBKTNV-1" source="IBT_xv0VZymIU8zP_UOQ-27" target="IBT_xv0VZymIU8zP_UOQ-28">
          <mxGeometry relative="1" as="geometry" />
        </mxCell>
        <mxCell id="IBT_xv0VZymIU8zP_UOQ-27" value="&lt;font style=&quot;font-size: 14px;&quot;&gt;cout &amp;lt;&amp;lt; endl;&lt;/font&gt;" style="shape=parallelogram;perimeter=parallelogramPerimeter;whiteSpace=wrap;html=1;fixedSize=1;" vertex="1" parent="WIyWlLk6GJQsqaUBKTNV-1">
          <mxGeometry x="152.5" y="490" width="115" height="30" as="geometry" />
        </mxCell>
        <mxCell id="IBT_xv0VZymIU8zP_UOQ-32" style="edgeStyle=none;curved=1;rounded=0;orthogonalLoop=1;jettySize=auto;html=1;exitX=0.5;exitY=1;exitDx=0;exitDy=0;entryX=0.5;entryY=0;entryDx=0;entryDy=0;fontSize=12;startSize=8;endSize=8;" edge="1" parent="WIyWlLk6GJQsqaUBKTNV-1" source="IBT_xv0VZymIU8zP_UOQ-28" target="IBT_xv0VZymIU8zP_UOQ-30">
          <mxGeometry relative="1" as="geometry" />
        </mxCell>
        <mxCell id="IBT_xv0VZymIU8zP_UOQ-28" value="&lt;font style=&quot;font-size: 14px;&quot;&gt;int shorts = 0;&lt;/font&gt;" style="whiteSpace=wrap;html=1;" vertex="1" parent="WIyWlLk6GJQsqaUBKTNV-1">
          <mxGeometry x="163.75" y="530" width="92.5" height="30" as="geometry" />
        </mxCell>
        <mxCell id="IBT_xv0VZymIU8zP_UOQ-33" style="edgeStyle=none;curved=1;rounded=0;orthogonalLoop=1;jettySize=auto;html=1;exitX=0.5;exitY=1;exitDx=0;exitDy=0;entryX=0.5;entryY=0;entryDx=0;entryDy=0;fontSize=12;startSize=8;endSize=8;" edge="1" parent="WIyWlLk6GJQsqaUBKTNV-1" source="IBT_xv0VZymIU8zP_UOQ-30" target="IBT_xv0VZymIU8zP_UOQ-31">
          <mxGeometry relative="1" as="geometry" />
        </mxCell>
        <mxCell id="IBT_xv0VZymIU8zP_UOQ-41" style="edgeStyle=none;curved=0;rounded=0;orthogonalLoop=1;jettySize=auto;html=1;exitX=1;exitY=0.5;exitDx=0;exitDy=0;fontSize=12;startSize=8;endSize=8;" edge="1" parent="WIyWlLk6GJQsqaUBKTNV-1" source="IBT_xv0VZymIU8zP_UOQ-30">
          <mxGeometry relative="1" as="geometry">
            <mxPoint x="210" y="760" as="targetPoint" />
            <Array as="points">
              <mxPoint x="330" y="590" />
              <mxPoint x="330" y="740" />
              <mxPoint x="210" y="740" />
            </Array>
          </mxGeometry>
        </mxCell>
        <mxCell id="IBT_xv0VZymIU8zP_UOQ-30" value="&lt;font style=&quot;font-size: 14px;&quot;&gt;for (int i = 1; i &amp;lt; n; i++)&lt;/font&gt;" style="shape=hexagon;perimeter=hexagonPerimeter2;whiteSpace=wrap;html=1;fixedSize=1;" vertex="1" parent="WIyWlLk6GJQsqaUBKTNV-1">
          <mxGeometry x="122.5" y="570" width="175" height="40" as="geometry" />
        </mxCell>
        <mxCell id="IBT_xv0VZymIU8zP_UOQ-35" style="edgeStyle=none;curved=0;rounded=0;orthogonalLoop=1;jettySize=auto;html=1;exitX=0;exitY=0.5;exitDx=0;exitDy=0;fontSize=12;startSize=8;endSize=8;entryX=0.5;entryY=0;entryDx=0;entryDy=0;" edge="1" parent="WIyWlLk6GJQsqaUBKTNV-1" source="IBT_xv0VZymIU8zP_UOQ-31" target="IBT_xv0VZymIU8zP_UOQ-36">
          <mxGeometry relative="1" as="geometry">
            <mxPoint x="80" y="670" as="targetPoint" />
            <Array as="points">
              <mxPoint x="86" y="650" />
            </Array>
          </mxGeometry>
        </mxCell>
        <mxCell id="IBT_xv0VZymIU8zP_UOQ-38" style="edgeStyle=none;curved=0;rounded=0;orthogonalLoop=1;jettySize=auto;html=1;exitX=1;exitY=0.5;exitDx=0;exitDy=0;fontSize=12;startSize=8;endSize=8;" edge="1" parent="WIyWlLk6GJQsqaUBKTNV-1" source="IBT_xv0VZymIU8zP_UOQ-31">
          <mxGeometry relative="1" as="geometry">
            <mxPoint x="210" y="720" as="targetPoint" />
            <Array as="points">
              <mxPoint x="320" y="720" />
            </Array>
          </mxGeometry>
        </mxCell>
        <mxCell id="IBT_xv0VZymIU8zP_UOQ-31" value="&lt;font style=&quot;font-size: 14px;&quot;&gt;if ((mas[i].length()) &amp;lt; (mas[shorts].length()))&lt;/font&gt;" style="rhombus;whiteSpace=wrap;html=1;" vertex="1" parent="WIyWlLk6GJQsqaUBKTNV-1">
          <mxGeometry x="100" y="620" width="220" height="60" as="geometry" />
        </mxCell>
        <mxCell id="IBT_xv0VZymIU8zP_UOQ-34" value="&lt;font style=&quot;font-size: 18px;&quot;&gt;{&lt;/font&gt;" style="text;html=1;align=center;verticalAlign=middle;resizable=0;points=[];autosize=1;strokeColor=none;fillColor=none;" vertex="1" parent="WIyWlLk6GJQsqaUBKTNV-1">
          <mxGeometry x="137.5" y="600" width="30" height="40" as="geometry" />
        </mxCell>
        <mxCell id="IBT_xv0VZymIU8zP_UOQ-37" style="edgeStyle=none;curved=0;rounded=0;orthogonalLoop=1;jettySize=auto;html=1;exitX=0.5;exitY=1;exitDx=0;exitDy=0;fontSize=12;startSize=8;endSize=8;" edge="1" parent="WIyWlLk6GJQsqaUBKTNV-1" source="IBT_xv0VZymIU8zP_UOQ-36">
          <mxGeometry relative="1" as="geometry">
            <mxPoint x="210" y="720" as="targetPoint" />
            <Array as="points">
              <mxPoint x="86" y="720" />
            </Array>
          </mxGeometry>
        </mxCell>
        <mxCell id="IBT_xv0VZymIU8zP_UOQ-36" value="&lt;font style=&quot;font-size: 14px;&quot;&gt;shorts = i;&lt;/font&gt;" style="whiteSpace=wrap;html=1;" vertex="1" parent="WIyWlLk6GJQsqaUBKTNV-1">
          <mxGeometry x="43.75" y="670" width="85" height="30" as="geometry" />
        </mxCell>
        <mxCell id="IBT_xv0VZymIU8zP_UOQ-39" value="" style="endArrow=classic;html=1;rounded=0;fontSize=12;startSize=8;endSize=8;curved=0;entryX=0;entryY=0.5;entryDx=0;entryDy=0;" edge="1" parent="WIyWlLk6GJQsqaUBKTNV-1" target="IBT_xv0VZymIU8zP_UOQ-30">
          <mxGeometry width="50" height="50" relative="1" as="geometry">
            <mxPoint x="210" y="720" as="sourcePoint" />
            <mxPoint x="260" y="670" as="targetPoint" />
            <Array as="points">
              <mxPoint x="210" y="730" />
              <mxPoint x="30" y="730" />
              <mxPoint x="30" y="590" />
            </Array>
          </mxGeometry>
        </mxCell>
        <mxCell id="IBT_xv0VZymIU8zP_UOQ-40" value="&lt;font style=&quot;font-size: 18px;&quot;&gt;}&lt;/font&gt;" style="text;html=1;align=center;verticalAlign=middle;resizable=0;points=[];autosize=1;strokeColor=none;fillColor=none;" vertex="1" parent="WIyWlLk6GJQsqaUBKTNV-1">
          <mxGeometry x="30" y="590" width="30" height="40" as="geometry" />
        </mxCell>
        <mxCell id="IBT_xv0VZymIU8zP_UOQ-42" value="&lt;span style=&quot;font-weight: 700; color: rgb(32, 33, 34); font-family: &amp;quot;palatino linotype&amp;quot;, &amp;quot;new athena unicode&amp;quot;, athena, gentium, code2000, serif; text-align: start; background-color: rgb(255, 255, 255);&quot;&gt;&lt;font style=&quot;font-size: 24px;&quot;&gt;α&lt;/font&gt;&lt;/span&gt;" style="ellipse;whiteSpace=wrap;html=1;aspect=fixed;" vertex="1" parent="WIyWlLk6GJQsqaUBKTNV-1">
          <mxGeometry x="180" y="760" width="60" height="60" as="geometry" />
        </mxCell>
        <mxCell id="IBT_xv0VZymIU8zP_UOQ-45" style="edgeStyle=none;curved=1;rounded=0;orthogonalLoop=1;jettySize=auto;html=1;exitX=0.5;exitY=1;exitDx=0;exitDy=0;entryX=0.5;entryY=0;entryDx=0;entryDy=0;fontSize=12;startSize=8;endSize=8;" edge="1" parent="WIyWlLk6GJQsqaUBKTNV-1" source="IBT_xv0VZymIU8zP_UOQ-43" target="IBT_xv0VZymIU8zP_UOQ-44">
          <mxGeometry relative="1" as="geometry" />
        </mxCell>
        <mxCell id="IBT_xv0VZymIU8zP_UOQ-43" value="&lt;span style=&quot;font-weight: 700; color: rgb(32, 33, 34); font-family: &amp;quot;palatino linotype&amp;quot;, &amp;quot;new athena unicode&amp;quot;, athena, gentium, code2000, serif; text-align: start; background-color: rgb(255, 255, 255);&quot;&gt;&lt;font style=&quot;font-size: 24px;&quot;&gt;α&lt;/font&gt;&lt;/span&gt;" style="ellipse;whiteSpace=wrap;html=1;aspect=fixed;" vertex="1" parent="WIyWlLk6GJQsqaUBKTNV-1">
          <mxGeometry x="580" y="20" width="60" height="60" as="geometry" />
        </mxCell>
        <mxCell id="IBT_xv0VZymIU8zP_UOQ-47" style="edgeStyle=none;curved=1;rounded=0;orthogonalLoop=1;jettySize=auto;html=1;exitX=0.5;exitY=1;exitDx=0;exitDy=0;entryX=0.5;entryY=0;entryDx=0;entryDy=0;fontSize=12;startSize=8;endSize=8;" edge="1" parent="WIyWlLk6GJQsqaUBKTNV-1" source="IBT_xv0VZymIU8zP_UOQ-44" target="IBT_xv0VZymIU8zP_UOQ-46">
          <mxGeometry relative="1" as="geometry" />
        </mxCell>
        <mxCell id="IBT_xv0VZymIU8zP_UOQ-44" value="&lt;font style=&quot;font-size: 14px;&quot;&gt;string* mass = new string[n-1];&lt;/font&gt;" style="whiteSpace=wrap;html=1;" vertex="1" parent="WIyWlLk6GJQsqaUBKTNV-1">
          <mxGeometry x="537.5" y="90" width="145" height="30" as="geometry" />
        </mxCell>
        <mxCell id="IBT_xv0VZymIU8zP_UOQ-49" style="edgeStyle=none;curved=1;rounded=0;orthogonalLoop=1;jettySize=auto;html=1;exitX=0.5;exitY=1;exitDx=0;exitDy=0;entryX=0.5;entryY=0;entryDx=0;entryDy=0;fontSize=12;startSize=8;endSize=8;" edge="1" parent="WIyWlLk6GJQsqaUBKTNV-1" source="IBT_xv0VZymIU8zP_UOQ-46" target="IBT_xv0VZymIU8zP_UOQ-48">
          <mxGeometry relative="1" as="geometry" />
        </mxCell>
        <mxCell id="IBT_xv0VZymIU8zP_UOQ-46" value="&lt;font style=&quot;font-size: 14px;&quot;&gt;int j = 0;&lt;/font&gt;" style="whiteSpace=wrap;html=1;" vertex="1" parent="WIyWlLk6GJQsqaUBKTNV-1">
          <mxGeometry x="567.5" y="130" width="85" height="30" as="geometry" />
        </mxCell>
        <mxCell id="IBT_xv0VZymIU8zP_UOQ-51" style="edgeStyle=none;curved=1;rounded=0;orthogonalLoop=1;jettySize=auto;html=1;exitX=0.5;exitY=1;exitDx=0;exitDy=0;entryX=0.5;entryY=0;entryDx=0;entryDy=0;fontSize=12;startSize=8;endSize=8;" edge="1" parent="WIyWlLk6GJQsqaUBKTNV-1" source="IBT_xv0VZymIU8zP_UOQ-48" target="IBT_xv0VZymIU8zP_UOQ-50">
          <mxGeometry relative="1" as="geometry" />
        </mxCell>
        <mxCell id="IBT_xv0VZymIU8zP_UOQ-60" style="edgeStyle=none;curved=0;rounded=0;orthogonalLoop=1;jettySize=auto;html=1;exitX=1;exitY=0.5;exitDx=0;exitDy=0;fontSize=12;startSize=8;endSize=8;" edge="1" parent="WIyWlLk6GJQsqaUBKTNV-1" source="IBT_xv0VZymIU8zP_UOQ-48">
          <mxGeometry relative="1" as="geometry">
            <mxPoint x="610" y="350" as="targetPoint" />
            <Array as="points">
              <mxPoint x="710" y="190" />
              <mxPoint x="710" y="330" />
              <mxPoint x="610" y="330" />
            </Array>
          </mxGeometry>
        </mxCell>
        <mxCell id="IBT_xv0VZymIU8zP_UOQ-48" value="&lt;font style=&quot;font-size: 14px;&quot;&gt;for (int i = 0; i &amp;lt; n; ++i)&lt;/font&gt;" style="shape=hexagon;perimeter=hexagonPerimeter2;whiteSpace=wrap;html=1;fixedSize=1;" vertex="1" parent="WIyWlLk6GJQsqaUBKTNV-1">
          <mxGeometry x="522.5" y="170" width="175" height="40" as="geometry" />
        </mxCell>
        <mxCell id="IBT_xv0VZymIU8zP_UOQ-57" style="edgeStyle=none;curved=0;rounded=0;orthogonalLoop=1;jettySize=auto;html=1;exitX=1;exitY=0.5;exitDx=0;exitDy=0;fontSize=12;startSize=8;endSize=8;" edge="1" parent="WIyWlLk6GJQsqaUBKTNV-1" source="IBT_xv0VZymIU8zP_UOQ-50">
          <mxGeometry relative="1" as="geometry">
            <mxPoint x="610" y="310" as="targetPoint" />
            <Array as="points">
              <mxPoint x="680" y="245" />
              <mxPoint x="680" y="310" />
            </Array>
          </mxGeometry>
        </mxCell>
        <mxCell id="IBT_xv0VZymIU8zP_UOQ-50" value="&lt;font style=&quot;font-size: 14px;&quot;&gt;if (i != shorts)&lt;/font&gt;" style="rhombus;whiteSpace=wrap;html=1;" vertex="1" parent="WIyWlLk6GJQsqaUBKTNV-1">
          <mxGeometry x="547.5" y="220" width="125" height="50" as="geometry" />
        </mxCell>
        <mxCell id="IBT_xv0VZymIU8zP_UOQ-52" value="&lt;font style=&quot;font-size: 18px;&quot;&gt;{&lt;/font&gt;" style="text;html=1;align=center;verticalAlign=middle;resizable=0;points=[];autosize=1;strokeColor=none;fillColor=none;" vertex="1" parent="WIyWlLk6GJQsqaUBKTNV-1">
          <mxGeometry x="547.5" y="200" width="30" height="40" as="geometry" />
        </mxCell>
        <mxCell id="IBT_xv0VZymIU8zP_UOQ-56" style="edgeStyle=none;curved=0;rounded=0;orthogonalLoop=1;jettySize=auto;html=1;exitX=0.5;exitY=1;exitDx=0;exitDy=0;fontSize=12;startSize=8;endSize=8;" edge="1" parent="WIyWlLk6GJQsqaUBKTNV-1">
          <mxGeometry relative="1" as="geometry">
            <mxPoint x="608.75" y="310" as="targetPoint" />
            <mxPoint x="537.5" y="290" as="sourcePoint" />
            <Array as="points">
              <mxPoint x="537.75" y="310" />
            </Array>
          </mxGeometry>
        </mxCell>
        <mxCell id="IBT_xv0VZymIU8zP_UOQ-53" value="&lt;font style=&quot;font-size: 14px;&quot;&gt;mass[j++] = mas[i];&lt;/font&gt;" style="whiteSpace=wrap;html=1;" vertex="1" parent="WIyWlLk6GJQsqaUBKTNV-1">
          <mxGeometry x="490" y="270" width="97.5" height="30" as="geometry" />
        </mxCell>
        <mxCell id="IBT_xv0VZymIU8zP_UOQ-55" value="" style="endArrow=classic;html=1;rounded=0;fontSize=12;startSize=8;endSize=8;curved=0;entryX=0.5;entryY=0;entryDx=0;entryDy=0;exitX=0;exitY=0.5;exitDx=0;exitDy=0;" edge="1" parent="WIyWlLk6GJQsqaUBKTNV-1" source="IBT_xv0VZymIU8zP_UOQ-50" target="IBT_xv0VZymIU8zP_UOQ-53">
          <mxGeometry width="50" height="50" relative="1" as="geometry">
            <mxPoint x="540" y="230" as="sourcePoint" />
            <mxPoint x="640" y="220" as="targetPoint" />
            <Array as="points">
              <mxPoint x="539" y="245" />
            </Array>
          </mxGeometry>
        </mxCell>
        <mxCell id="IBT_xv0VZymIU8zP_UOQ-58" value="" style="endArrow=classic;html=1;rounded=0;fontSize=12;startSize=8;endSize=8;curved=0;entryX=0;entryY=0.5;entryDx=0;entryDy=0;" edge="1" parent="WIyWlLk6GJQsqaUBKTNV-1" target="IBT_xv0VZymIU8zP_UOQ-48">
          <mxGeometry width="50" height="50" relative="1" as="geometry">
            <mxPoint x="610" y="310" as="sourcePoint" />
            <mxPoint x="610" y="330" as="targetPoint" />
            <Array as="points">
              <mxPoint x="610" y="320" />
              <mxPoint x="480" y="320" />
              <mxPoint x="480" y="190" />
            </Array>
          </mxGeometry>
        </mxCell>
        <mxCell id="IBT_xv0VZymIU8zP_UOQ-59" value="&lt;font style=&quot;font-size: 18px;&quot;&gt;}&lt;/font&gt;" style="text;html=1;align=center;verticalAlign=middle;resizable=0;points=[];autosize=1;strokeColor=none;fillColor=none;" vertex="1" parent="WIyWlLk6GJQsqaUBKTNV-1">
          <mxGeometry x="480" y="190" width="30" height="40" as="geometry" />
        </mxCell>
        <mxCell id="IBT_xv0VZymIU8zP_UOQ-63" style="edgeStyle=none;curved=1;rounded=0;orthogonalLoop=1;jettySize=auto;html=1;exitX=0.5;exitY=1;exitDx=0;exitDy=0;entryX=0.5;entryY=0;entryDx=0;entryDy=0;fontSize=12;startSize=8;endSize=8;" edge="1" parent="WIyWlLk6GJQsqaUBKTNV-1" source="IBT_xv0VZymIU8zP_UOQ-61" target="IBT_xv0VZymIU8zP_UOQ-62">
          <mxGeometry relative="1" as="geometry" />
        </mxCell>
        <mxCell id="IBT_xv0VZymIU8zP_UOQ-61" value="&lt;font style=&quot;font-size: 14px;&quot;&gt;delete[] mas;&lt;/font&gt;" style="whiteSpace=wrap;html=1;" vertex="1" parent="WIyWlLk6GJQsqaUBKTNV-1">
          <mxGeometry x="567.5" y="350" width="85" height="30" as="geometry" />
        </mxCell>
        <mxCell id="IBT_xv0VZymIU8zP_UOQ-65" style="edgeStyle=none;curved=1;rounded=0;orthogonalLoop=1;jettySize=auto;html=1;exitX=0.5;exitY=1;exitDx=0;exitDy=0;entryX=0.5;entryY=0;entryDx=0;entryDy=0;fontSize=12;startSize=8;endSize=8;" edge="1" parent="WIyWlLk6GJQsqaUBKTNV-1" source="IBT_xv0VZymIU8zP_UOQ-62" target="IBT_xv0VZymIU8zP_UOQ-64">
          <mxGeometry relative="1" as="geometry" />
        </mxCell>
        <mxCell id="IBT_xv0VZymIU8zP_UOQ-62" value="&lt;div&gt;&lt;span style=&quot;font-size: 14px;&quot;&gt;mas = nullptr;&lt;/span&gt;&lt;/div&gt;&lt;div&gt;&lt;span style=&quot;white-space: pre; font-size: 14px; white-space: normal;&quot;&gt;&#x9;&lt;/span&gt;&lt;/div&gt;" style="whiteSpace=wrap;html=1;" vertex="1" parent="WIyWlLk6GJQsqaUBKTNV-1">
          <mxGeometry x="560" y="390" width="100" height="30" as="geometry" />
        </mxCell>
        <mxCell id="IBT_xv0VZymIU8zP_UOQ-67" style="edgeStyle=none;curved=1;rounded=0;orthogonalLoop=1;jettySize=auto;html=1;exitX=0.5;exitY=1;exitDx=0;exitDy=0;entryX=0.5;entryY=0;entryDx=0;entryDy=0;fontSize=12;startSize=8;endSize=8;" edge="1" parent="WIyWlLk6GJQsqaUBKTNV-1" source="IBT_xv0VZymIU8zP_UOQ-64" target="IBT_xv0VZymIU8zP_UOQ-66">
          <mxGeometry relative="1" as="geometry" />
        </mxCell>
        <mxCell id="IBT_xv0VZymIU8zP_UOQ-69" style="edgeStyle=none;curved=0;rounded=0;orthogonalLoop=1;jettySize=auto;html=1;exitX=1;exitY=0.5;exitDx=0;exitDy=0;fontSize=12;startSize=8;endSize=8;" edge="1" parent="WIyWlLk6GJQsqaUBKTNV-1" source="IBT_xv0VZymIU8zP_UOQ-64">
          <mxGeometry relative="1" as="geometry">
            <mxPoint x="610" y="540" as="targetPoint" />
            <Array as="points">
              <mxPoint x="710" y="450" />
              <mxPoint x="710" y="530" />
              <mxPoint x="610" y="530" />
            </Array>
          </mxGeometry>
        </mxCell>
        <mxCell id="IBT_xv0VZymIU8zP_UOQ-64" value="&lt;font style=&quot;font-size: 14px;&quot;&gt;for (int i = 0; i &amp;lt; n-1; i++)&lt;/font&gt;" style="shape=hexagon;perimeter=hexagonPerimeter2;whiteSpace=wrap;html=1;fixedSize=1;" vertex="1" parent="WIyWlLk6GJQsqaUBKTNV-1">
          <mxGeometry x="522.5" y="430" width="175" height="40" as="geometry" />
        </mxCell>
        <mxCell id="IBT_xv0VZymIU8zP_UOQ-68" style="edgeStyle=none;curved=0;rounded=0;orthogonalLoop=1;jettySize=auto;html=1;exitX=0.5;exitY=1;exitDx=0;exitDy=0;entryX=0;entryY=0.5;entryDx=0;entryDy=0;fontSize=12;startSize=8;endSize=8;" edge="1" parent="WIyWlLk6GJQsqaUBKTNV-1" source="IBT_xv0VZymIU8zP_UOQ-66" target="IBT_xv0VZymIU8zP_UOQ-64">
          <mxGeometry relative="1" as="geometry">
            <Array as="points">
              <mxPoint x="610" y="520" />
              <mxPoint x="510" y="520" />
              <mxPoint x="510" y="450" />
            </Array>
          </mxGeometry>
        </mxCell>
        <mxCell id="IBT_xv0VZymIU8zP_UOQ-66" value="&lt;font style=&quot;font-size: 14px;&quot;&gt;cout &amp;lt;&amp;lt; mass[i] &amp;lt;&amp;lt; &quot; &quot;;&lt;/font&gt;" style="shape=parallelogram;perimeter=parallelogramPerimeter;whiteSpace=wrap;html=1;fixedSize=1;" vertex="1" parent="WIyWlLk6GJQsqaUBKTNV-1">
          <mxGeometry x="526.25" y="480" width="167.5" height="30" as="geometry" />
        </mxCell>
        <mxCell id="IBT_xv0VZymIU8zP_UOQ-73" style="edgeStyle=none;curved=1;rounded=0;orthogonalLoop=1;jettySize=auto;html=1;exitX=0.5;exitY=1;exitDx=0;exitDy=0;fontSize=12;startSize=8;endSize=8;" edge="1" parent="WIyWlLk6GJQsqaUBKTNV-1" source="IBT_xv0VZymIU8zP_UOQ-70" target="IBT_xv0VZymIU8zP_UOQ-71">
          <mxGeometry relative="1" as="geometry" />
        </mxCell>
        <mxCell id="IBT_xv0VZymIU8zP_UOQ-70" value="&lt;font style=&quot;font-size: 14px;&quot;&gt;delete[] mass;&lt;/font&gt;" style="whiteSpace=wrap;html=1;" vertex="1" parent="WIyWlLk6GJQsqaUBKTNV-1">
          <mxGeometry x="560" y="540" width="102.5" height="30" as="geometry" />
        </mxCell>
        <mxCell id="IBT_xv0VZymIU8zP_UOQ-75" style="edgeStyle=none;curved=1;rounded=0;orthogonalLoop=1;jettySize=auto;html=1;exitX=0.5;exitY=1;exitDx=0;exitDy=0;entryX=0.5;entryY=0;entryDx=0;entryDy=0;fontSize=12;startSize=8;endSize=8;" edge="1" parent="WIyWlLk6GJQsqaUBKTNV-1" source="IBT_xv0VZymIU8zP_UOQ-71" target="IBT_xv0VZymIU8zP_UOQ-74">
          <mxGeometry relative="1" as="geometry" />
        </mxCell>
        <mxCell id="IBT_xv0VZymIU8zP_UOQ-71" value="&lt;font style=&quot;font-size: 14px;&quot;&gt;mass = nullptr;&lt;/font&gt;" style="whiteSpace=wrap;html=1;" vertex="1" parent="WIyWlLk6GJQsqaUBKTNV-1">
          <mxGeometry x="550" y="580" width="122.5" height="30" as="geometry" />
        </mxCell>
        <mxCell id="IBT_xv0VZymIU8zP_UOQ-74" value="&lt;font style=&quot;font-size: 17px;&quot;&gt;return 0;&lt;/font&gt;" style="ellipse;whiteSpace=wrap;html=1;" vertex="1" parent="WIyWlLk6GJQsqaUBKTNV-1">
          <mxGeometry x="555" y="620" width="112.5" height="60" as="geometry" />
        </mxCell>
        <mxCell id="IBT_xv0VZymIU8zP_UOQ-76" value="&lt;font style=&quot;font-size: 18px;&quot;&gt;}&lt;/font&gt;" style="text;html=1;align=center;verticalAlign=middle;resizable=0;points=[];autosize=1;strokeColor=none;fillColor=none;" vertex="1" parent="WIyWlLk6GJQsqaUBKTNV-1">
          <mxGeometry x="667.5" y="630" width="30" height="40" as="geometry" />
        </mxCell>
      </root>
    </mxGraphModel>
  </diagram>
</mxfile>
